<svg width="150" height="150" viewBox="0 0 150 150" fill="none" xmlns="http://www.w3.org/2000/svg">
<rect width="150" height="150" rx="22" fill="#60E1DB"/>
<path d="M13 71L52 131L136 18" stroke="black" stroke-width="20"/>
<path d="M23.9073 32.017V30.4545H34.8164V32.017H30.2425V45H28.4812V32.017H23.9073ZM40.1573 45.2273C39.1725 45.2273 38.3084 44.9929 37.565 44.5241C36.8263 44.0554 36.2487 43.3996 35.832 42.5568C35.4201 41.714 35.2141 40.7292 35.2141 39.6023C35.2141 38.4659 35.4201 37.474 35.832 36.6264C36.2487 35.7789 36.8263 35.1207 37.565 34.652C38.3084 34.1832 39.1725 33.9489 40.1573 33.9489C41.1422 33.9489 42.0039 34.1832 42.7425 34.652C43.4859 35.1207 44.0636 35.7789 44.4755 36.6264C44.8922 37.474 45.1005 38.4659 45.1005 39.6023C45.1005 40.7292 44.8922 41.714 44.4755 42.5568C44.0636 43.3996 43.4859 44.0554 42.7425 44.5241C42.0039 44.9929 41.1422 45.2273 40.1573 45.2273ZM40.1573 43.7216C40.9054 43.7216 41.521 43.5298 42.0039 43.1463C42.4869 42.7628 42.8443 42.2585 43.0763 41.6335C43.3084 41.0085 43.4244 40.3314 43.4244 39.6023C43.4244 38.8731 43.3084 38.1937 43.0763 37.5639C42.8443 36.9342 42.4869 36.4252 42.0039 36.0369C41.521 35.6487 40.9054 35.4545 40.1573 35.4545C39.4092 35.4545 38.7937 35.6487 38.3107 36.0369C37.8278 36.4252 37.4703 36.9342 37.2383 37.5639C37.0063 38.1937 36.8903 38.8731 36.8903 39.6023C36.8903 40.3314 37.0063 41.0085 37.2383 41.6335C37.4703 42.2585 37.8278 42.7628 38.3107 43.1463C38.7937 43.5298 39.4092 43.7216 40.1573 43.7216ZM58 45H53.5114V30.4545H58.1989C59.6098 30.4545 60.8172 30.7457 61.821 31.3281C62.8248 31.9058 63.5942 32.7367 64.1293 33.821C64.6643 34.9006 64.9318 36.1932 64.9318 37.6989C64.9318 39.214 64.6619 40.5185 64.1222 41.6122C63.5824 42.7012 62.7964 43.5393 61.7642 44.1264C60.732 44.7088 59.4773 45 58 45ZM55.2727 43.4375H57.8864C59.089 43.4375 60.0857 43.2055 60.8764 42.7415C61.6671 42.2775 62.2566 41.617 62.6449 40.7599C63.0331 39.9029 63.2273 38.8826 63.2273 37.6989C63.2273 36.5246 63.0355 35.5137 62.652 34.6662C62.2685 33.8139 61.6955 33.1605 60.9332 32.706C60.1709 32.2467 59.2216 32.017 58.0852 32.017H55.2727V43.4375ZM72.0909 45.2273C71.1061 45.2273 70.242 44.9929 69.4986 44.5241C68.7599 44.0554 68.1823 43.3996 67.7656 42.5568C67.3537 41.714 67.1477 40.7292 67.1477 39.6023C67.1477 38.4659 67.3537 37.474 67.7656 36.6264C68.1823 35.7789 68.7599 35.1207 69.4986 34.652C70.242 34.1832 71.1061 33.9489 72.0909 33.9489C73.0758 33.9489 73.9375 34.1832 74.6761 34.652C75.4195 35.1207 75.9972 35.7789 76.4091 36.6264C76.8258 37.474 77.0341 38.4659 77.0341 39.6023C77.0341 40.7292 76.8258 41.714 76.4091 42.5568C75.9972 43.3996 75.4195 44.0554 74.6761 44.5241C73.9375 44.9929 73.0758 45.2273 72.0909 45.2273ZM72.0909 43.7216C72.839 43.7216 73.4545 43.5298 73.9375 43.1463C74.4205 42.7628 74.7779 42.2585 75.0099 41.6335C75.242 41.0085 75.358 40.3314 75.358 39.6023C75.358 38.8731 75.242 38.1937 75.0099 37.5639C74.7779 36.9342 74.4205 36.4252 73.9375 36.0369C73.4545 35.6487 72.839 35.4545 72.0909 35.4545C71.3428 35.4545 70.7273 35.6487 70.2443 36.0369C69.7614 36.4252 69.4039 36.9342 69.1719 37.5639C68.9399 38.1937 68.8239 38.8731 68.8239 39.6023C68.8239 40.3314 68.9399 41.0085 69.1719 41.6335C69.4039 42.2585 69.7614 42.7628 70.2443 43.1463C70.7273 43.5298 71.3428 43.7216 72.0909 43.7216ZM35.4059 69V54.4545H37.1673V67.4375H43.9286V69H35.4059ZM46.4286 69V58.0909H48.1048V69H46.4286ZM47.2809 56.2727C46.9542 56.2727 46.6725 56.1615 46.4357 55.9389C46.2037 55.7164 46.0877 55.4489 46.0877 55.1364C46.0877 54.8239 46.2037 54.5563 46.4357 54.3338C46.6725 54.1113 46.9542 54 47.2809 54C47.6076 54 47.887 54.1113 48.119 54.3338C48.3557 54.5563 48.4741 54.8239 48.4741 55.1364C48.4741 55.4489 48.3557 55.7164 48.119 55.9389C47.887 56.1615 47.6076 56.2727 47.2809 56.2727ZM58.902 60.5341L57.3963 60.9602C57.3016 60.7093 57.1619 60.4654 56.9773 60.2287C56.7973 59.9872 56.5511 59.7884 56.2386 59.6321C55.9261 59.4759 55.526 59.3977 55.0384 59.3977C54.3707 59.3977 53.8144 59.5516 53.3693 59.8594C52.929 60.1624 52.7088 60.5483 52.7088 61.017C52.7088 61.4337 52.8603 61.7628 53.1634 62.0043C53.4664 62.2457 53.9399 62.447 54.5838 62.608L56.2031 63.0057C57.1785 63.2424 57.9053 63.6046 58.3835 64.0923C58.8617 64.5753 59.1009 65.1979 59.1009 65.9602C59.1009 66.5852 58.9209 67.1439 58.5611 67.6364C58.206 68.1288 57.7088 68.517 57.0696 68.8011C56.4304 69.0852 55.687 69.2273 54.8395 69.2273C53.7268 69.2273 52.8059 68.9858 52.0767 68.5028C51.3475 68.0199 50.8859 67.3144 50.6918 66.3864L52.2827 65.9886C52.4342 66.5758 52.7206 67.0161 53.142 67.3097C53.5682 67.6032 54.1245 67.75 54.8111 67.75C55.5923 67.75 56.2126 67.5843 56.6719 67.2528C57.1359 66.9167 57.3679 66.5142 57.3679 66.0455C57.3679 65.6667 57.2353 65.3494 56.9702 65.0938C56.705 64.8333 56.2978 64.6392 55.7486 64.5114L53.9304 64.0852C52.9313 63.8485 52.1974 63.4815 51.7287 62.9844C51.2647 62.4825 51.0327 61.8551 51.0327 61.1023C51.0327 60.4867 51.2055 59.9422 51.5511 59.4688C51.9015 58.9953 52.3774 58.6236 52.9787 58.3537C53.5848 58.0838 54.2713 57.9489 55.0384 57.9489C56.1179 57.9489 56.9654 58.1856 57.581 58.6591C58.2012 59.1326 58.6416 59.7576 58.902 60.5341ZM66.3683 58.0909V59.5114H60.7148V58.0909H66.3683ZM62.3626 55.4773H64.0387V65.875C64.0387 66.3485 64.1074 66.7036 64.2447 66.9403C64.3867 67.1723 64.5666 67.3286 64.7844 67.4091C65.007 67.4848 65.2414 67.5227 65.4876 67.5227C65.6722 67.5227 65.8237 67.5133 65.9421 67.4943C66.0605 67.4706 66.1552 67.4517 66.2262 67.4375L66.5671 68.9432C66.4535 68.9858 66.2949 69.0284 66.0913 69.071C65.8877 69.1184 65.6296 69.142 65.3171 69.142C64.8436 69.142 64.3796 69.0402 63.9251 68.8366C63.4753 68.633 63.1012 68.3229 62.8029 67.9062C62.5094 67.4896 62.3626 66.964 62.3626 66.3295V55.4773Z" fill="black"/>
</svg>
