<svg width="150" height="150" viewBox="0 0 150 150" fill="none" xmlns="http://www.w3.org/2000/svg">
<rect width="150" height="150" rx="31" fill="#E3E1ED"/>
<path d="M13 42H60L13 91H60" stroke="black" stroke-width="9"/>
<g filter="url(#filter0_d_15_10)">
<mask id="path-3-outside-1_15_10" maskUnits="userSpaceOnUse" x="66" y="63" width="69" height="33" fill="black">
<rect fill="white" x="66" y="63" width="69" height="33"/>
<path d="M84.9489 72.1818C84.7973 70.3731 84.0587 68.91 82.733 67.7926C81.4167 66.6752 79.7121 66.1165 77.6193 66.1165C76.2083 66.1165 74.9536 66.3769 73.8551 66.8977C72.7566 67.4186 71.8949 68.1288 71.2699 69.0284C70.6449 69.928 70.3324 70.9602 70.3324 72.125C70.3324 72.8731 70.4744 73.5502 70.7585 74.1562C71.0521 74.7528 71.464 75.2879 71.9943 75.7614C72.5246 76.2254 73.1544 76.6326 73.8835 76.983C74.6127 77.3333 75.4176 77.6411 76.2983 77.9062L79.4801 78.8438C80.5691 79.1752 81.5729 79.5587 82.4915 79.9943C83.4195 80.4299 84.2244 80.9508 84.9062 81.5568C85.5975 82.1534 86.1326 82.8542 86.5114 83.6591C86.8996 84.464 87.0938 85.392 87.0938 86.4432C87.0938 87.9773 86.696 89.3504 85.9006 90.5625C85.1146 91.7746 83.9924 92.7311 82.5341 93.4318C81.0852 94.1231 79.3759 94.4688 77.4062 94.4688C75.5312 94.4688 73.8977 94.1515 72.5057 93.517C71.1231 92.8826 70.0294 92.0019 69.2244 90.875C68.4195 89.7386 67.965 88.4318 67.8608 86.9545H69.679C69.7737 88.1572 70.1572 89.1989 70.8295 90.0795C71.5114 90.9508 72.4157 91.6231 73.5426 92.0966C74.6695 92.5701 75.9574 92.8068 77.4062 92.8068C78.9688 92.8068 80.3466 92.5417 81.5398 92.0114C82.733 91.4716 83.6657 90.7235 84.3381 89.767C85.0104 88.8106 85.3466 87.6979 85.3466 86.429C85.3466 85.4062 85.1051 84.5303 84.6222 83.8011C84.1392 83.072 83.4242 82.4422 82.4773 81.9119C81.5398 81.3816 80.375 80.9081 78.983 80.4915L75.5881 79.4688C73.3153 78.7775 71.5777 77.8352 70.375 76.642C69.1818 75.4489 68.5852 73.9621 68.5852 72.1818C68.5852 70.6856 68.983 69.3598 69.7784 68.2045C70.5739 67.0398 71.6534 66.1259 73.017 65.4631C74.3902 64.8002 75.9384 64.4688 77.6619 64.4688C79.3949 64.4688 80.9242 64.8049 82.25 65.4773C83.5758 66.1402 84.6269 67.054 85.4034 68.2188C86.1799 69.3741 86.6108 70.6951 86.696 72.1818H84.9489ZM93.5852 94V72.1818H95.304V94H93.5852ZM94.4517 68.3182C94.0729 68.3182 93.7415 68.1856 93.4574 67.9205C93.1828 67.6553 93.0455 67.3333 93.0455 66.9545C93.0455 66.5758 93.1828 66.2538 93.4574 65.9886C93.732 65.7235 94.0634 65.5909 94.4517 65.5909C94.8305 65.5909 95.1572 65.7235 95.4318 65.9886C95.7159 66.2538 95.858 66.5758 95.858 66.9545C95.858 67.3333 95.7206 67.6553 95.446 67.9205C95.1714 68.1856 94.84 68.3182 94.4517 68.3182ZM110.276 72.1818V73.7301H100.744V72.1818H110.276ZM103.969 66.9545H105.688V88.8438C105.688 89.7339 105.858 90.4631 106.199 91.0312C106.549 91.59 107.004 92.0066 107.562 92.2812C108.131 92.5464 108.737 92.679 109.381 92.679C109.693 92.679 109.963 92.6553 110.19 92.608C110.427 92.5606 110.65 92.4991 110.858 92.4233L111.284 94C111.019 94.0947 110.725 94.1752 110.403 94.2415C110.081 94.3172 109.703 94.3551 109.267 94.3551C108.358 94.3551 107.496 94.1515 106.682 93.7443C105.877 93.3371 105.223 92.7453 104.722 91.9688C104.22 91.1922 103.969 90.2547 103.969 89.1562V66.9545ZM124.977 94.4545C123.008 94.4545 121.294 93.9669 119.835 92.9915C118.377 92.0161 117.25 90.6809 116.455 88.9858C115.659 87.2907 115.261 85.3589 115.261 83.1903C115.261 81.0123 115.659 79.071 116.455 77.3665C117.259 75.6619 118.363 74.3172 119.764 73.3324C121.166 72.3475 122.766 71.8551 124.565 71.8551C125.787 71.8551 126.942 72.1013 128.031 72.5938C129.13 73.0767 130.096 73.7775 130.929 74.696C131.772 75.6146 132.43 76.7225 132.903 78.0199C133.386 79.3172 133.628 80.7756 133.628 82.3949V83.4744H116.355V81.8977H131.895C131.895 80.3163 131.573 78.8911 130.929 77.6222C130.285 76.3532 129.409 75.3447 128.301 74.5966C127.193 73.8485 125.948 73.4744 124.565 73.4744C123.116 73.4744 121.824 73.8816 120.688 74.696C119.561 75.5009 118.666 76.59 118.003 77.9631C117.349 79.3362 117.009 80.8703 116.98 82.5653V83.2756C116.98 85.0937 117.297 86.7273 117.932 88.1761C118.576 89.6155 119.494 90.7566 120.688 91.5994C121.881 92.4328 123.311 92.8494 124.977 92.8494C126.17 92.8494 127.188 92.6506 128.031 92.2528C128.884 91.8456 129.58 91.3532 130.119 90.7756C130.659 90.1979 131.066 89.6392 131.341 89.0994L132.918 89.7386C132.586 90.4678 132.07 91.197 131.369 91.9261C130.678 92.6458 129.797 93.2472 128.727 93.7301C127.667 94.2131 126.417 94.4545 124.977 94.4545Z"/>
</mask>
<path d="M84.9489 72.1818C84.7973 70.3731 84.0587 68.91 82.733 67.7926C81.4167 66.6752 79.7121 66.1165 77.6193 66.1165C76.2083 66.1165 74.9536 66.3769 73.8551 66.8977C72.7566 67.4186 71.8949 68.1288 71.2699 69.0284C70.6449 69.928 70.3324 70.9602 70.3324 72.125C70.3324 72.8731 70.4744 73.5502 70.7585 74.1562C71.0521 74.7528 71.464 75.2879 71.9943 75.7614C72.5246 76.2254 73.1544 76.6326 73.8835 76.983C74.6127 77.3333 75.4176 77.6411 76.2983 77.9062L79.4801 78.8438C80.5691 79.1752 81.5729 79.5587 82.4915 79.9943C83.4195 80.4299 84.2244 80.9508 84.9062 81.5568C85.5975 82.1534 86.1326 82.8542 86.5114 83.6591C86.8996 84.464 87.0938 85.392 87.0938 86.4432C87.0938 87.9773 86.696 89.3504 85.9006 90.5625C85.1146 91.7746 83.9924 92.7311 82.5341 93.4318C81.0852 94.1231 79.3759 94.4688 77.4062 94.4688C75.5312 94.4688 73.8977 94.1515 72.5057 93.517C71.1231 92.8826 70.0294 92.0019 69.2244 90.875C68.4195 89.7386 67.965 88.4318 67.8608 86.9545H69.679C69.7737 88.1572 70.1572 89.1989 70.8295 90.0795C71.5114 90.9508 72.4157 91.6231 73.5426 92.0966C74.6695 92.5701 75.9574 92.8068 77.4062 92.8068C78.9688 92.8068 80.3466 92.5417 81.5398 92.0114C82.733 91.4716 83.6657 90.7235 84.3381 89.767C85.0104 88.8106 85.3466 87.6979 85.3466 86.429C85.3466 85.4062 85.1051 84.5303 84.6222 83.8011C84.1392 83.072 83.4242 82.4422 82.4773 81.9119C81.5398 81.3816 80.375 80.9081 78.983 80.4915L75.5881 79.4688C73.3153 78.7775 71.5777 77.8352 70.375 76.642C69.1818 75.4489 68.5852 73.9621 68.5852 72.1818C68.5852 70.6856 68.983 69.3598 69.7784 68.2045C70.5739 67.0398 71.6534 66.1259 73.017 65.4631C74.3902 64.8002 75.9384 64.4688 77.6619 64.4688C79.3949 64.4688 80.9242 64.8049 82.25 65.4773C83.5758 66.1402 84.6269 67.054 85.4034 68.2188C86.1799 69.3741 86.6108 70.6951 86.696 72.1818H84.9489ZM93.5852 94V72.1818H95.304V94H93.5852ZM94.4517 68.3182C94.0729 68.3182 93.7415 68.1856 93.4574 67.9205C93.1828 67.6553 93.0455 67.3333 93.0455 66.9545C93.0455 66.5758 93.1828 66.2538 93.4574 65.9886C93.732 65.7235 94.0634 65.5909 94.4517 65.5909C94.8305 65.5909 95.1572 65.7235 95.4318 65.9886C95.7159 66.2538 95.858 66.5758 95.858 66.9545C95.858 67.3333 95.7206 67.6553 95.446 67.9205C95.1714 68.1856 94.84 68.3182 94.4517 68.3182ZM110.276 72.1818V73.7301H100.744V72.1818H110.276ZM103.969 66.9545H105.688V88.8438C105.688 89.7339 105.858 90.4631 106.199 91.0312C106.549 91.59 107.004 92.0066 107.562 92.2812C108.131 92.5464 108.737 92.679 109.381 92.679C109.693 92.679 109.963 92.6553 110.19 92.608C110.427 92.5606 110.65 92.4991 110.858 92.4233L111.284 94C111.019 94.0947 110.725 94.1752 110.403 94.2415C110.081 94.3172 109.703 94.3551 109.267 94.3551C108.358 94.3551 107.496 94.1515 106.682 93.7443C105.877 93.3371 105.223 92.7453 104.722 91.9688C104.22 91.1922 103.969 90.2547 103.969 89.1562V66.9545ZM124.977 94.4545C123.008 94.4545 121.294 93.9669 119.835 92.9915C118.377 92.0161 117.25 90.6809 116.455 88.9858C115.659 87.2907 115.261 85.3589 115.261 83.1903C115.261 81.0123 115.659 79.071 116.455 77.3665C117.259 75.6619 118.363 74.3172 119.764 73.3324C121.166 72.3475 122.766 71.8551 124.565 71.8551C125.787 71.8551 126.942 72.1013 128.031 72.5938C129.13 73.0767 130.096 73.7775 130.929 74.696C131.772 75.6146 132.43 76.7225 132.903 78.0199C133.386 79.3172 133.628 80.7756 133.628 82.3949V83.4744H116.355V81.8977H131.895C131.895 80.3163 131.573 78.8911 130.929 77.6222C130.285 76.3532 129.409 75.3447 128.301 74.5966C127.193 73.8485 125.948 73.4744 124.565 73.4744C123.116 73.4744 121.824 73.8816 120.688 74.696C119.561 75.5009 118.666 76.59 118.003 77.9631C117.349 79.3362 117.009 80.8703 116.98 82.5653V83.2756C116.98 85.0937 117.297 86.7273 117.932 88.1761C118.576 89.6155 119.494 90.7566 120.688 91.5994C121.881 92.4328 123.311 92.8494 124.977 92.8494C126.17 92.8494 127.188 92.6506 128.031 92.2528C128.884 91.8456 129.58 91.3532 130.119 90.7756C130.659 90.1979 131.066 89.6392 131.341 89.0994L132.918 89.7386C132.586 90.4678 132.07 91.197 131.369 91.9261C130.678 92.6458 129.797 93.2472 128.727 93.7301C127.667 94.2131 126.417 94.4545 124.977 94.4545Z" fill="white"/>
<path d="M84.9489 72.1818L83.9524 72.2653L84.0291 73.1818H84.9489V72.1818ZM82.733 67.7926L82.0858 68.555L82.0885 68.5572L82.733 67.7926ZM73.8551 66.8977L73.4267 65.9941L73.4267 65.9941L73.8551 66.8977ZM71.2699 69.0284L70.4486 68.4578L70.4486 68.4578L71.2699 69.0284ZM70.7585 74.1562L69.8531 74.5807L69.8571 74.5893L69.8613 74.5978L70.7585 74.1562ZM71.9943 75.7614L71.3283 76.5073L71.3358 76.5139L71.9943 75.7614ZM73.8835 76.983L74.3166 76.0816L74.3166 76.0816L73.8835 76.983ZM76.2983 77.9062L76.01 78.8638L76.0157 78.8655L76.2983 77.9062ZM79.4801 78.8438L79.7713 77.887L79.7627 77.8845L79.4801 78.8438ZM82.4915 79.9943L82.063 80.8979L82.0666 80.8996L82.4915 79.9943ZM84.9062 81.5568L84.2419 82.3042L84.2474 82.3091L84.2529 82.3139L84.9062 81.5568ZM86.5114 83.6591L85.6065 84.0849L85.6107 84.0935L86.5114 83.6591ZM85.9006 90.5625L85.0645 90.0138L85.0615 90.0184L85.9006 90.5625ZM82.5341 93.4318L82.9647 94.3344L82.9672 94.3332L82.5341 93.4318ZM72.5057 93.517L72.0886 94.4259L72.0909 94.427L72.5057 93.517ZM69.2244 90.875L68.4084 91.453L68.4107 91.4562L69.2244 90.875ZM67.8608 86.9545V85.9545H66.7878L66.8633 87.0249L67.8608 86.9545ZM69.679 86.9545L70.6759 86.876L70.6033 85.9545H69.679V86.9545ZM70.8295 90.0795L70.0346 90.6864L70.042 90.6959L70.8295 90.0795ZM73.5426 92.0966L73.1552 93.0185L73.1552 93.0185L73.5426 92.0966ZM81.5398 92.0114L81.9459 92.9252L81.9519 92.9225L81.5398 92.0114ZM84.3381 89.767L83.52 89.192L83.52 89.192L84.3381 89.767ZM84.6222 83.8011L83.7884 84.3533L84.6222 83.8011ZM82.4773 81.9119L81.9849 82.7823L81.9887 82.7844L82.4773 81.9119ZM78.983 80.4915L78.6945 81.449L78.6962 81.4495L78.983 80.4915ZM75.5881 79.4688L75.2971 80.4255L75.2996 80.4262L75.5881 79.4688ZM70.375 76.642L69.6679 77.3492L69.6707 77.3519L70.375 76.642ZM69.7784 68.2045L70.6021 68.7717L70.6042 68.7685L69.7784 68.2045ZM73.017 65.4631L72.5823 64.5625L72.5799 64.5637L73.017 65.4631ZM82.25 65.4773L81.7977 66.3692L81.8028 66.3717L82.25 65.4773ZM85.4034 68.2188L84.5714 68.7735L84.5735 68.7766L85.4034 68.2188ZM86.696 72.1818V73.1818H87.755L87.6944 72.1246L86.696 72.1818ZM85.9454 72.0983C85.7728 70.0386 84.9167 68.3254 83.3774 67.028L82.0885 68.5572C83.2007 69.4947 83.8219 70.7076 83.9524 72.2653L85.9454 72.0983ZM83.3801 67.0303C81.8468 65.7286 79.8968 65.1165 77.6193 65.1165V67.1165C79.5274 67.1165 80.9865 67.6218 82.0858 68.555L83.3801 67.0303ZM77.6193 65.1165C76.0839 65.1165 74.679 65.4004 73.4267 65.9941L74.2835 67.8013C75.2282 67.3534 76.3328 67.1165 77.6193 67.1165V65.1165ZM73.4267 65.9941C72.1882 66.5814 71.1839 67.3995 70.4486 68.4578L72.0911 69.599C72.6059 68.8581 73.3251 68.2557 74.2835 67.8013L73.4267 65.9941ZM70.4486 68.4578C69.6997 69.5358 69.3324 70.7699 69.3324 72.125H71.3324C71.3324 71.1506 71.5901 70.3202 72.0911 69.599L70.4486 68.4578ZM69.3324 72.125C69.3324 73.0024 69.4997 73.8269 69.8531 74.5807L71.664 73.7318C71.4491 73.2735 71.3324 72.7438 71.3324 72.125H69.3324ZM69.8613 74.5978C70.2155 75.3176 70.7088 75.9541 71.3283 76.5073L72.6603 75.0154C72.2193 74.6216 71.8887 74.1881 71.6558 73.7147L69.8613 74.5978ZM71.3358 76.5139C71.9434 77.0455 72.6515 77.5004 73.4504 77.8843L74.3166 76.0816C73.6572 75.7647 73.1059 75.4052 72.6528 75.0088L71.3358 76.5139ZM73.4504 77.8843C74.2321 78.2599 75.0863 78.5857 76.01 78.8638L76.5866 76.9487C75.749 76.6965 74.9932 76.4067 74.3166 76.0816L73.4504 77.8843ZM76.0157 78.8655L79.1975 79.803L79.7627 77.8845L76.5809 76.947L76.0157 78.8655ZM79.189 79.8004C80.2364 80.1192 81.1937 80.4856 82.063 80.8979L82.92 79.0908C81.9521 78.6318 80.9018 78.2312 79.7713 77.8871L79.189 79.8004ZM82.0666 80.8996C82.9182 81.2993 83.6401 81.7693 84.2419 82.3042L85.5706 80.8094C84.8087 80.1322 83.9208 79.5605 82.9164 79.0891L82.0666 80.8996ZM84.2529 82.3139C84.841 82.8214 85.289 83.4102 85.6065 84.0849L87.4162 83.2333C86.9761 82.2981 86.3541 81.4854 85.5596 80.7998L84.2529 82.3139ZM85.6107 84.0935C85.923 84.7411 86.0938 85.5162 86.0938 86.4432H88.0938C88.0938 85.2679 87.8762 84.1869 87.4121 83.2246L85.6107 84.0935ZM86.0938 86.4432C86.0938 87.7942 85.7467 88.9744 85.0645 90.0138L86.7366 91.1112C87.6454 89.7264 88.0938 88.1603 88.0938 86.4432H86.0938ZM85.0615 90.0184C84.3871 91.0585 83.4142 91.8995 82.101 92.5305L82.9672 94.3332C84.5707 93.5627 85.8421 92.4907 86.7396 91.1066L85.0615 90.0184ZM82.1035 92.5293C80.8161 93.1435 79.2601 93.4688 77.4062 93.4688V95.4688C79.4918 95.4688 81.3544 95.1027 82.9647 94.3344L82.1035 92.5293ZM77.4062 93.4688C75.6428 93.4688 74.1563 93.1704 72.9204 92.6071L72.0909 94.427C73.6391 95.1326 75.4197 95.4688 77.4062 95.4688V93.4688ZM72.9228 92.6082C71.6827 92.0391 70.7319 91.265 70.0382 90.2938L68.4107 91.4562C69.3268 92.7388 70.5635 93.7261 72.0886 94.4259L72.9228 92.6082ZM70.0405 90.297C69.3482 89.3196 68.9505 88.1909 68.8583 86.8842L66.8633 87.0249C66.9795 88.6727 67.4909 90.1577 68.4084 91.453L70.0405 90.297ZM67.8608 87.9545H69.679V85.9545H67.8608V87.9545ZM68.6821 87.033C68.7905 88.4098 69.2352 89.6391 70.0347 90.6864L71.6244 89.4727C71.0792 88.7586 70.7569 87.9046 70.6759 86.876L68.6821 87.033ZM70.042 90.6959C70.8397 91.7151 71.888 92.486 73.1552 93.0185L73.93 91.1747C72.9435 90.7602 72.183 90.1864 71.6171 89.4632L70.042 90.6959ZM73.1552 93.0185C74.4253 93.5522 75.8486 93.8068 77.4062 93.8068V91.8068C76.0662 91.8068 74.9137 91.588 73.93 91.1747L73.1552 93.0185ZM77.4062 93.8068C79.0816 93.8068 80.6023 93.5223 81.9459 92.9252L81.1336 91.0976C80.0909 91.561 78.8559 91.8068 77.4062 91.8068V93.8068ZM81.9519 92.9225C83.288 92.3181 84.369 91.4619 85.1562 90.3421L83.52 89.192C82.9624 89.9851 82.1779 90.6251 81.1276 91.1003L81.9519 92.9225ZM85.1562 90.3421C85.9571 89.2028 86.3466 87.8853 86.3466 86.429H84.3466C84.3466 87.5105 84.0637 88.4184 83.52 89.192L85.1562 90.3421ZM86.3466 86.429C86.3466 85.2439 86.0646 84.1681 85.4559 83.2489L83.7884 84.3533C84.1456 84.8925 84.3466 85.5686 84.3466 86.429H86.3466ZM85.4559 83.2489C84.8664 82.3589 84.0189 81.6291 82.9659 81.0394L81.9887 82.7844C82.8296 83.2554 83.4121 83.7851 83.7884 84.3533L85.4559 83.2489ZM82.9696 81.0415C81.949 80.4642 80.7103 79.9647 79.2697 79.5335L78.6962 81.4495C80.0397 81.8516 81.1305 82.299 81.9849 82.7823L82.9696 81.0415ZM79.2714 79.534L75.8765 78.5113L75.2996 80.4262L78.6945 81.449L79.2714 79.534ZM75.8791 78.512C73.7031 77.8502 72.1293 76.9738 71.0793 75.9321L69.6707 77.3519C71.026 78.6966 72.9276 79.7048 75.2971 80.4255L75.8791 78.512ZM71.0821 75.9349C70.0876 74.9405 69.5852 73.7131 69.5852 72.1818H67.5852C67.5852 74.2111 68.276 75.9573 69.6679 77.3492L71.0821 75.9349ZM69.5852 72.1818C69.5852 70.8739 69.9293 69.7488 70.6021 68.7716L68.9548 67.6374C68.0366 68.9709 67.5852 70.4973 67.5852 72.1818H69.5852ZM70.6042 68.7685C71.2942 67.7582 72.235 66.9551 73.4542 66.3624L72.5799 64.5637C71.0718 65.2968 69.8535 66.3214 68.9526 67.6406L70.6042 68.7685ZM73.4518 66.3636C74.6726 65.7743 76.0693 65.4688 77.6619 65.4688V63.4688C75.8076 63.4688 74.1077 63.8261 72.5823 64.5625L73.4518 66.3636ZM77.6619 65.4688C79.2638 65.4688 80.6336 65.7788 81.7977 66.3691L82.7023 64.5854C81.2149 63.8311 79.526 63.4688 77.6619 63.4688V65.4688ZM81.8028 66.3717C82.9824 66.9615 83.8971 67.7621 84.5714 68.7734L86.2355 67.6641C85.3567 66.3459 84.1691 65.3188 82.6972 64.5828L81.8028 66.3717ZM84.5735 68.7766C85.243 69.7727 85.6219 70.9183 85.6977 72.239L87.6944 72.1246C87.5996 70.4719 87.1169 68.9754 86.2334 67.6609L84.5735 68.7766ZM86.696 71.1818H84.9489V73.1818H86.696V71.1818ZM93.5852 94H92.5852V95H93.5852V94ZM93.5852 72.1818V71.1818H92.5852V72.1818H93.5852ZM95.304 72.1818H96.304V71.1818H95.304V72.1818ZM95.304 94V95H96.304V94H95.304ZM93.4574 67.9205L92.7628 68.6399L92.7689 68.6457L92.7751 68.6515L93.4574 67.9205ZM95.4318 65.9886L94.7372 66.708L94.7433 66.7139L94.7495 66.7197L95.4318 65.9886ZM95.446 67.9205L94.7514 67.201L94.7514 67.2011L95.446 67.9205ZM94.5852 94V72.1818H92.5852V94H94.5852ZM93.5852 73.1818H95.304V71.1818H93.5852V73.1818ZM94.304 72.1818V94H96.304V72.1818H94.304ZM95.304 93H93.5852V95H95.304V93ZM94.4517 67.3182C94.3334 67.3182 94.2439 67.2867 94.1397 67.1894L92.7751 68.6515C93.239 69.0845 93.8124 69.3182 94.4517 69.3182V67.3182ZM94.152 67.201C94.0708 67.1227 94.0455 67.0597 94.0455 66.9545H92.0455C92.0455 67.607 92.2947 68.1879 92.7628 68.6399L94.152 67.201ZM94.0455 66.9545C94.0455 66.8494 94.0708 66.7864 94.152 66.708L92.7628 65.2692C92.2947 65.7212 92.0455 66.3021 92.0455 66.9545H94.0455ZM94.152 66.708C94.2366 66.6263 94.3176 66.5909 94.4517 66.5909V64.5909C93.8092 64.5909 93.2274 64.8207 92.7628 65.2692L94.152 66.708ZM94.4517 66.5909C94.5691 66.5909 94.6474 66.6213 94.7372 66.708L96.1264 65.2692C95.667 64.8256 95.0919 64.5909 94.4517 64.5909V66.5909ZM94.7495 66.7197C94.8369 66.8013 94.858 66.861 94.858 66.9545H96.858C96.858 66.2905 96.5949 65.7063 96.1141 65.2576L94.7495 66.7197ZM94.858 66.9545C94.858 67.0597 94.8326 67.1227 94.7514 67.201L96.1406 68.6399C96.6087 68.1879 96.858 67.607 96.858 66.9545H94.858ZM94.7514 67.2011C94.6668 67.2828 94.5858 67.3182 94.4517 67.3182V69.3182C95.0942 69.3182 95.676 69.0884 96.1406 68.6399L94.7514 67.2011ZM110.276 72.1818H111.276V71.1818H110.276V72.1818ZM110.276 73.7301V74.7301H111.276V73.7301H110.276ZM100.744 73.7301H99.7443V74.7301H100.744V73.7301ZM100.744 72.1818V71.1818H99.7443V72.1818H100.744ZM103.969 66.9545V65.9545H102.969V66.9545H103.969ZM105.688 66.9545H106.688V65.9545H105.688V66.9545ZM106.199 91.0312L105.341 91.5457L105.346 91.5542L105.352 91.5625L106.199 91.0312ZM107.562 92.2812L107.121 93.1787L107.13 93.1832L107.14 93.1874L107.562 92.2812ZM110.19 92.608L109.994 91.6273L109.986 91.629L110.19 92.608ZM110.858 92.4233L111.823 92.1624L111.539 91.1115L110.516 91.4835L110.858 92.4233ZM111.284 94L111.62 94.9417L112.491 94.631L112.249 93.7391L111.284 94ZM110.403 94.2415L110.202 93.262L110.188 93.2648L110.174 93.2681L110.403 94.2415ZM106.682 93.7443L106.23 94.6366L106.235 94.6387L106.682 93.7443ZM104.722 91.9688L105.561 91.4259L105.561 91.4259L104.722 91.9688ZM109.276 72.1818V73.7301H111.276V72.1818H109.276ZM110.276 72.7301H100.744V74.7301H110.276V72.7301ZM101.744 73.7301V72.1818H99.7443V73.7301H101.744ZM100.744 73.1818H110.276V71.1818H100.744V73.1818ZM103.969 67.9545H105.688V65.9545H103.969V67.9545ZM104.688 66.9545V88.8438H106.688V66.9545H104.688ZM104.688 88.8438C104.688 89.8549 104.88 90.7776 105.341 91.5457L107.056 90.5168C106.835 90.1486 106.688 89.6129 106.688 88.8438H104.688ZM105.352 91.5625C105.795 92.2689 106.386 92.8172 107.121 93.1787L108.004 91.3838C107.622 91.1961 107.304 90.911 107.046 90.5L105.352 91.5625ZM107.14 93.1874C107.844 93.5161 108.595 93.679 109.381 93.679V91.679C108.879 91.679 108.418 91.5767 107.985 91.3751L107.14 93.1874ZM109.381 93.679C109.74 93.679 110.081 93.6521 110.394 93.5869L109.986 91.629C109.845 91.6585 109.647 91.679 109.381 91.679V93.679ZM110.386 93.5885C110.668 93.5322 110.94 93.4575 111.2 93.3631L110.516 91.4835C110.359 91.5406 110.186 91.5891 109.994 91.6274L110.386 93.5885ZM109.893 92.6842L110.319 94.2609L112.249 93.7391L111.823 92.1624L109.893 92.6842ZM110.948 93.0583C110.733 93.1349 110.485 93.2036 110.202 93.262L110.605 95.2209C110.965 95.1468 111.305 95.0545 111.62 94.9417L110.948 93.0583ZM110.174 93.2681C109.947 93.3216 109.648 93.3551 109.267 93.3551V95.3551C109.757 95.3551 110.216 95.3129 110.632 95.2149L110.174 93.2681ZM109.267 93.3551C108.513 93.3551 107.805 93.1878 107.129 92.8499L106.235 94.6387C107.188 95.1153 108.202 95.3551 109.267 95.3551V93.3551ZM107.133 92.852C106.491 92.5269 105.97 92.0575 105.561 91.4259L103.882 92.5116C104.477 93.4331 105.263 94.1474 106.23 94.6366L107.133 92.852ZM105.561 91.4259C105.182 90.8395 104.969 90.0989 104.969 89.1562H102.969C102.969 90.4106 103.257 91.545 103.882 92.5116L105.561 91.4259ZM104.969 89.1562V66.9545H102.969V89.1562H104.969ZM116.455 88.9858L117.36 88.561L117.36 88.561L116.455 88.9858ZM116.455 77.3665L115.55 76.9395L115.548 76.9436L116.455 77.3665ZM119.764 73.3324L119.189 72.5142L119.189 72.5142L119.764 73.3324ZM128.031 72.5938L127.619 73.505L127.629 73.5092L128.031 72.5938ZM130.929 74.696L130.188 75.3679L130.192 75.3721L130.929 74.696ZM132.903 78.0199L131.964 78.3627L131.966 78.3688L132.903 78.0199ZM133.628 83.4744V84.4744H134.628V83.4744H133.628ZM116.355 83.4744H115.355V84.4744H116.355V83.4744ZM116.355 81.8977V80.8977H115.355V81.8977H116.355ZM131.895 81.8977V82.8977H132.895V81.8977H131.895ZM130.929 77.6222L130.037 78.0747L130.037 78.0747L130.929 77.6222ZM128.301 74.5966L127.742 75.4254L127.742 75.4254L128.301 74.5966ZM120.688 74.696L121.269 75.5098L121.27 75.5088L120.688 74.696ZM118.003 77.9631L117.102 77.5283L117.1 77.5334L118.003 77.9631ZM116.98 82.5653L115.98 82.5486L115.98 82.557V82.5653H116.98ZM117.932 88.1761L117.016 88.5773L117.019 88.5845L117.932 88.1761ZM120.688 91.5994L120.111 92.4162L120.115 92.4193L120.688 91.5994ZM128.031 92.2528L128.458 93.1572L128.462 93.1551L128.031 92.2528ZM130.119 90.7756L130.85 91.4583L130.85 91.4583L130.119 90.7756ZM131.341 89.0994L131.717 88.1727L130.866 87.8278L130.45 88.646L131.341 89.0994ZM132.918 89.7386L133.828 90.1524L134.259 89.2035L133.293 88.8119L132.918 89.7386ZM131.369 91.9261L130.648 91.2332L130.648 91.2334L131.369 91.9261ZM128.727 93.7301L128.316 92.8186L128.313 92.82L128.727 93.7301ZM124.977 93.4545C123.18 93.4545 121.665 93.0124 120.391 92.1603L119.279 93.8227C120.922 94.9213 122.835 95.4545 124.977 95.4545V93.4545ZM120.391 92.1603C119.094 91.2929 118.083 90.1028 117.36 88.561L115.549 89.4106C116.417 91.2589 117.659 92.7393 119.279 93.8227L120.391 92.1603ZM117.36 88.561C116.636 87.0183 116.261 85.2352 116.261 83.1903H114.261C114.261 85.4826 114.682 87.5631 115.549 89.4106L117.36 88.561ZM116.261 83.1903C116.261 81.1355 116.636 79.3421 117.361 77.7894L115.548 76.9436C114.682 78.7999 114.261 80.8892 114.261 83.1903H116.261ZM117.359 77.7935C118.097 76.2295 119.093 75.026 120.339 74.1506L119.189 72.5142C117.632 73.6085 116.422 75.0943 115.55 76.9395L117.359 77.7935ZM120.339 74.1506C121.564 73.2902 122.961 72.8551 124.565 72.8551V70.8551C122.571 70.8551 120.768 71.4049 119.189 72.5142L120.339 74.1506ZM124.565 72.8551C125.648 72.8551 126.663 73.0724 127.619 73.5049L128.443 71.6826C127.222 71.1303 125.926 70.8551 124.565 70.8551V72.8551ZM127.629 73.5092C128.594 73.9337 129.446 74.5498 130.188 75.3679L131.67 74.0241C130.745 73.0051 129.665 72.2197 128.434 71.6783L127.629 73.5092ZM130.192 75.3721C130.937 76.184 131.531 77.1754 131.964 78.3627L133.843 77.677C133.329 76.2697 132.606 75.0451 131.666 74.02L130.192 75.3721ZM131.966 78.3688C132.401 79.5373 132.628 80.8748 132.628 82.3949H134.628C134.628 80.6763 134.371 79.0972 133.841 77.671L131.966 78.3688ZM132.628 82.3949V83.4744H134.628V82.3949H132.628ZM133.628 82.4744H116.355V84.4744H133.628V82.4744ZM117.355 83.4744V81.8977H115.355V83.4744H117.355ZM116.355 82.8977H131.895V80.8977H116.355V82.8977ZM132.895 81.8977C132.895 80.1768 132.543 78.5938 131.821 77.1696L130.037 78.0747C130.602 79.1884 130.895 80.4558 130.895 81.8977H132.895ZM131.821 77.1696C131.105 75.7592 130.119 74.6172 128.861 73.7678L127.742 75.4254C128.7 76.0722 129.465 76.9473 130.037 78.0747L131.821 77.1696ZM128.861 73.7678C127.582 72.9041 126.14 72.4744 124.565 72.4744V74.4744C125.756 74.4744 126.805 74.7928 127.742 75.4254L128.861 73.7678ZM124.565 72.4744C122.916 72.4744 121.418 72.9425 120.105 73.8832L121.27 75.5088C122.23 74.8208 123.317 74.4744 124.565 74.4744V72.4744ZM120.106 73.8823C118.829 74.7943 117.831 76.0197 117.102 77.5283L118.903 78.3978C119.501 77.1602 120.292 76.2075 121.269 75.5098L120.106 73.8823ZM117.1 77.5334C116.378 79.0497 116.011 80.727 115.98 82.5486L117.98 82.5821C118.006 81.0135 118.321 79.6226 118.906 78.3928L117.1 77.5334ZM115.98 82.5653V83.2756H117.98V82.5653H115.98ZM115.98 83.2756C115.98 85.2113 116.318 86.9844 117.016 88.5773L118.848 87.775C118.276 86.4702 117.98 84.9762 117.98 83.2756H115.98ZM117.019 88.5845C117.73 90.1742 118.759 91.4617 120.111 92.4162L121.264 90.7826C120.229 90.0516 119.421 89.0568 118.845 87.7678L117.019 88.5845ZM120.115 92.4193C121.5 93.3863 123.137 93.8494 124.977 93.8494V91.8494C123.485 91.8494 122.262 91.4792 121.26 90.7796L120.115 92.4193ZM124.977 93.8494C126.278 93.8494 127.45 93.633 128.458 93.1572L127.604 91.3485C126.927 91.6682 126.063 91.8494 124.977 91.8494V93.8494ZM128.462 93.1551C129.406 92.7044 130.21 92.1431 130.85 91.4583L129.389 90.0928C128.949 90.5633 128.361 90.9869 127.6 91.3505L128.462 93.1551ZM130.85 91.4583C131.435 90.8318 131.904 90.1972 132.232 89.5529L130.45 88.646C130.228 89.0812 129.883 89.564 129.389 90.0928L130.85 91.4583ZM130.965 90.0262L132.542 90.6654L133.293 88.8119L131.717 88.1727L130.965 90.0262ZM132.007 89.3248C131.733 89.9279 131.29 90.5652 130.648 91.2332L132.09 92.6191C132.85 91.8287 133.439 91.0077 133.828 90.1524L132.007 89.3248ZM130.648 91.2334C130.059 91.8464 129.29 92.3791 128.316 92.8186L129.139 94.6416C130.305 94.1152 131.297 93.4453 132.091 92.6189L130.648 91.2334ZM128.313 92.82C127.409 93.2315 126.306 93.4545 124.977 93.4545V95.4545C126.527 95.4545 127.924 95.1946 129.142 94.6402L128.313 92.82Z" fill="black" mask="url(#path-3-outside-1_15_10)"/>
</g>
<defs>
<filter id="filter0_d_15_10" x="62.7878" y="63.4688" width="75.84" height="40" filterUnits="userSpaceOnUse" color-interpolation-filters="sRGB">
<feFlood flood-opacity="0" result="BackgroundImageFix"/>
<feColorMatrix in="SourceAlpha" type="matrix" values="0 0 0 0 0 0 0 0 0 0 0 0 0 0 0 0 0 0 127 0" result="hardAlpha"/>
<feOffset dy="4"/>
<feGaussianBlur stdDeviation="2"/>
<feComposite in2="hardAlpha" operator="out"/>
<feColorMatrix type="matrix" values="0 0 0 0 0 0 0 0 0 0 0 0 0 0 0 0 0 0 0.25 0"/>
<feBlend mode="normal" in2="BackgroundImageFix" result="effect1_dropShadow_15_10"/>
<feBlend mode="normal" in="SourceGraphic" in2="effect1_dropShadow_15_10" result="shape"/>
</filter>
</defs>
</svg>
